<?xml version="1.0" encoding="utf-8"?>
<!-- Generator: Adobe Illustrator 21.0.1, SVG Export Plug-In . SVG Version: 6.00 Build 0)  -->
<svg version="1.1" id="Layer_1" xmlns="http://www.w3.org/2000/svg" xmlns:xlink="http://www.w3.org/1999/xlink" x="0px" y="0px"
	 viewBox="0 0 120 103" style="enable-background:new 0 0 120 103;" xml:space="preserve">
<style type="text/css">
	.st0{fill:#F0F0F0;}
	.st1{fill:#FFD40E;}
</style>
<title>Group 16</title>
<desc>Created with Sketch.</desc>
<g id="User-app">
	<g id="Authentication" transform="translate(-121.000000, -160.000000)">
		<g id="Group-16" transform="translate(121.000000, 160.000000)">
			<path id="Fill-4" class="st0" d="M56.2,80.7c2,0,3.5-0.4,4.6-1.3c1.1-0.9,1.6-2.1,1.6-3.6v-0.1c0-1.7-0.6-2.9-1.7-3.7
				c-1.1-0.8-2.6-1.2-4.6-1.2h-7.5v9.9H56.2z M37.1,60.9h19.6c3.2,0,5.9,0.4,8.1,1.2c2.2,0.8,4,1.9,5.4,3.3c2.4,2.4,3.7,5.6,3.7,9.6
				v0.1c0,3.2-0.8,5.8-2.3,7.9c-1.5,2.1-3.6,3.7-6.2,4.8l9.9,14.4H62l-8.3-12.5h-0.1h-4.9v12.5H37.1V60.9z"/>
			<path id="Fill-6" class="st0" d="M96.7,92.1c3.4,0,6.2-0.9,8.3-2.7c2.1-1.8,3.1-4.4,3.1-7.8v-0.1c0-3.3-1-5.9-3.1-7.7
				c-2.1-1.8-4.9-2.8-8.3-2.8H92v21.1H96.7z M80.5,60.9h16c3.7,0,7,0.5,9.9,1.5c2.9,1,5.3,2.4,7.3,4.2c2,1.8,3.5,4,4.6,6.5
				c1,2.5,1.6,5.3,1.6,8.3v0.1c0,3-0.5,5.8-1.6,8.3c-1.1,2.5-2.6,4.7-4.6,6.6c-2,1.9-4.5,3.3-7.4,4.3c-2.9,1-6.3,1.6-10,1.6H80.5
				V60.9z"/>
			<polygon id="Fill-8" class="st1" points="119.9,57.1 26.1,57.1 26.1,102.3 14.2,102.3 14.2,57.1 0,57.1 0,48.5 119.9,48.5 			"/>
			<path id="Fill-10" class="st0" d="M115.3,29.2L115.3,29.2c0,1.6,0,3.2,0,4.8c0,2.3-1.1,4-3.2,5c-2.3,1.1-5.4,0.2-6.8-2
				c-0.6-1-0.9-2-0.9-3.1c0-3.3,0-6.6,0-10c0-0.6,0.1-0.6,0.6-0.6c3.2,0,6.5,0,9.7,0c0.4,0,0.5,0.2,0.5,0.6
				C115.3,25.7,115.3,27.5,115.3,29.2 M103.6,19.4c-1.8-4-3.6-8-5.5-12c-0.5-1.1-1-2.2-1.5-3.3c-0.1-0.3-0.1-0.4,0.3-0.4
				c2.2,0,4.4,0,6.7,0c0.4,0,0.6,0.3,0.8,0.6c1.8,3,3.6,5.9,5.4,8.9c1.3,2,2.5,4.1,3.7,6.1c0.1,0.1,0.2,0.3,0.3,0.5
				c-0.2,0-0.4,0.1-0.6,0.1c-3,0-5.9,0-8.9,0C104,19.8,103.8,19.7,103.6,19.4 M100.8,34.3c0,2-1,3.5-2.7,4.6
				c-2.6,1.5-6.1,0.6-7.6-2.3c-0.4-0.8-0.5-1.6-0.5-2.4c0-1.6,0-3.1,0-4.7c0-1.8,0-3.6,0-5.4c0-0.6,0-0.6,0.6-0.6c3.2,0,6.4,0,9.6,0
				c0.4,0,0.6,0.1,0.6,0.5C100.9,27.3,100.9,30.8,100.8,34.3 M89.4,19.2c-0.5-1.5-3.7-12.5-4.2-14c0-0.1-0.1-0.2-0.2-0.3
				c-0.1-0.4-0.2-0.8-0.4-1.2c0.2,0,0.4-0.1,0.5-0.1c2.2,0,4.5,0,6.7,0c0.4,0,0.6,0.2,0.7,0.5c1.5,3.4,3.1,6.8,4.7,10.2
				c0.8,1.8,1.6,3.6,2.5,5.5c-0.3,0-0.4,0.1-0.6,0.1c-3,0-6.1,0-9.1,0C89.7,19.8,89.5,19.6,89.4,19.2 M86.5,34.1
				c0,1.9-0.8,3.4-2.4,4.5c-2.8,2-6.9,0.8-8.1-2.4c-0.2-0.6-0.4-1.4-0.4-2.1c0-3.4,0-6.8,0-10.1c0-0.6,0-0.6,0.6-0.6
				c3.2,0,6.5,0,9.7,0c0.5,0,0.6,0.1,0.6,0.6c0,1.7,0,3.5,0,5.2h0C86.5,30.8,86.5,32.4,86.5,34.1 M75.3,19.3
				c-0.3-2.1-0.6-4.1-0.9-6.2c-0.4-2.3-0.7-4.6-1.1-6.9C73.2,5.5,73.1,4.7,73,4c0-0.3,0.1-0.4,0.4-0.4c2.4,0,4.7,0,7.1,0
				c0.4,0,0.5,0.2,0.6,0.5c0.4,1.3,0.8,2.5,1.2,3.7c0,0.1,0.1,0.2,0.1,0.3c0.9,3.1,2.4,8.3,2.5,8.7c0.3,0.9,0.5,1.7,0.8,2.6
				c0.1,0.3,0,0.4-0.3,0.4c-0.4,0-0.9,0-1.3,0c-2.7,0-5.5,0-8.2,0C75.5,19.8,75.4,19.7,75.3,19.3 M72,34.2c-0.1,2.3-1.2,4-3.4,4.9
				c-2.3,1-5.3,0.1-6.6-2.1c-0.6-0.9-0.8-1.9-0.8-3c0-3.4,0-6.8,0-10.2c0-0.4,0.2-0.5,0.6-0.5c3.2,0,6.5,0,9.7,0
				c0.4,0,0.6,0.1,0.6,0.6c0,1.8,0,3.6,0,5.4h0C72,30.9,72.1,32.6,72,34.2 M61.2,11.7L61.2,11.7c0-2.5,0-4.9,0-7.4
				c0-0.7,0-0.7,0.7-0.7c2.3,0,4.5,0,6.8,0c0.5,0,0.6,0.2,0.7,0.6c0.3,2,0.6,3.9,0.9,5.9c0.3,1.8,0.5,3.6,0.8,5.5
				c0.2,1.2,0.4,2.5,0.6,3.7c0.1,0.5,0,0.5-0.4,0.5c-3.2,0-6.3,0-9.5,0c-0.4,0-0.5-0.2-0.5-0.6C61.2,16.7,61.2,14.2,61.2,11.7
				 M57.6,33.9c0,2.3-1,4-3.1,5.1c-2.4,1.2-5.2,0.4-6.7-1.7c-0.6-0.9-1-1.9-1-2.9c0-1.7,0-3.4,0-5.1h0V24c0-0.6,0-0.6,0.6-0.6H57
				c0.6,0,0.7,0,0.7,0.6C57.7,27.3,57.7,30.6,57.6,33.9 M47.2,19.2c0.2-1.2,0.4-2.5,0.6-3.8c0.2-1.4,0.4-2.8,0.6-4.2
				c0.2-1.2,0.4-2.4,0.5-3.6c0.2-1.2,0.4-2.4,0.5-3.7c0-0.3,0.2-0.4,0.5-0.4c2.4,0,4.8,0,7.2,0c0.4,0,0.4,0.2,0.4,0.6
				c0,2.5,0,5,0,7.6v7.5c0,0.6,0,0.6-0.6,0.6c-3.1,0-6.2,0-9.3,0C47.1,19.8,47.1,19.7,47.2,19.2 M45.9,4.1c-0.2,1.3-0.4,2.6-0.6,3.8
				c-0.2,1.3-0.4,2.6-0.6,3.9c-0.2,1.4-0.4,2.7-0.6,4.1c-0.2,1.2-0.4,2.3-0.5,3.4c0,0.4-0.2,0.5-0.6,0.5c-1.6,0-3.1,0-4.7,0
				c-1.6,0-3.1,0-4.7,0c-0.6,0-0.6,0-0.4-0.6c0.5-1.7,1-3.4,1.5-5.1c0.5-1.7,1.1-3.4,1.6-5c0.5-1.7,1-3.4,1.5-5.1
				c0.1-0.3,0.2-0.5,0.6-0.5c2.4,0,4.7,0,7.1,0C45.8,3.6,45.9,3.7,45.9,4.1 M43.3,34c0,2.1-0.9,3.7-2.8,4.8
				c-2.5,1.5-6.1,0.5-7.4-2.1c-0.4-0.9-0.7-1.8-0.7-2.7c0-3.4,0-6.7,0-10c0-0.6,0-0.6,0.6-0.6c3.2,0,6.5,0,9.7,0
				c0.4,0,0.6,0.2,0.6,0.6c0,1.8,0,3.5,0,5.3h0C43.3,30.8,43.3,32.4,43.3,34 M30.8,14.9c-0.4,1.4-0.9,2.8-1.3,4.3
				c-0.1,0.4-0.3,0.6-0.7,0.6c-3,0-6.1,0-9.1,0c-0.2,0-0.4,0-0.6-0.1c0.5-1,0.9-1.9,1.3-2.9c1-2.2,2-4.3,3-6.5
				c1-2.1,1.9-4.3,2.9-6.4c0.1-0.2,0.3-0.4,0.5-0.4c2.4,0,4.7,0,7.1,0c0.1,0,0.2,0,0.4,0.1c-0.3,0.9-0.5,1.7-0.8,2.6
				c-0.4,1.5-0.9,2.9-1.3,4.4C31.6,12.1,31.2,13.5,30.8,14.9 M28.8,34c0,2.4-1.1,4.1-3.2,5.1c-2.5,1.2-5.9,0-7.1-2.5
				c-0.4-0.8-0.5-1.6-0.5-2.5c0-3.4,0-6.8,0-10.1c0-0.4,0.1-0.6,0.6-0.6c3.2,0,6.4,0,9.6,0c0.6,0,0.6,0,0.6,0.6c0,1.8,0,3.6,0,5.3
				C28.8,30.9,28.8,32.4,28.8,34 M15.2,19.5c-0.1,0.3-0.4,0.3-0.7,0.3H8.2c-0.9,0-1.7,0-2.6,0c-0.2,0-0.3,0-0.6-0.1
				c0.4-0.7,0.8-1.4,1.2-2C8.6,13.8,11,10,13.3,6.1c0.4-0.7,0.8-1.3,1.2-2c0.2-0.4,0.5-0.6,1-0.6c2.1,0,4.3,0,6.4,0
				c0.5,0,0.5,0.1,0.3,0.5c-1.2,2.7-2.5,5.4-3.7,8.2C17.4,14.7,16.3,17.1,15.2,19.5 M14.4,33.9c0,2.3-1,4.1-3.1,5.1
				c-2.2,1.1-4.9,0.5-6.5-1.5c-0.8-1-1.2-2.1-1.2-3.4c0-1.7,0-3.3,0-5c0-1.8,0-3.5,0-5.3c0-0.4,0.1-0.6,0.6-0.6c3.2,0,6.4,0,9.6,0
				c0.6,0,0.7,0.1,0.7,0.6C14.4,27.3,14.5,30.6,14.4,33.9 M118.8,21.7c0-0.4-0.1-0.8-0.3-1.2c-1.1-1.9-2.2-3.7-3.4-5.5
				c-2.5-4.1-5-8.2-7.5-12.3C106.6,0.9,105.1,0,103,0c-7.8,0-15.6,0-23.4,0c-21.3,0-42.7,0-64,0c-1.8,0-3.2,0.8-4.1,2.3
				C7.9,8.1,4.4,14,0.8,19.8C0.2,20.6,0,21.5,0,22.5c0,3.9,0,7.7,0,11.6c0,3,1.3,5.4,3.6,7.2c0.3,0.2,4,1.7,4.8,1.8
				c2.9,0.1,5.4-0.9,7.3-3.1c0.4-0.5,0.5-0.5,0.9,0c1.4,1.6,3.1,2.6,5.1,2.9c3.3,0.5,6.2-0.4,8.4-3c0.4-0.4,0.4-0.4,0.8,0
				c1.4,1.6,3.1,2.6,5.1,3c3.3,0.5,6.2-0.4,8.4-3c0.4-0.5,0.4-0.5,0.8,0c1.4,1.6,3.1,2.6,5.2,3c3.3,0.5,6.1-0.4,8.4-2.9
				c0.4-0.5,0.5-0.5,0.9,0c1.1,1.3,2.5,2.3,4.2,2.7c3.7,1,6.8,0.1,9.4-2.8c0.3-0.4,0.4-0.4,0.7,0c1.1,1.3,2.5,2.3,4.2,2.8
				c3.6,1,6.8,0.1,9.4-2.7c0.4-0.4,0.4-0.4,0.8,0c1.4,1.6,3.1,2.6,5.2,3c3.3,0.5,6.2-0.4,8.5-3c0.3-0.4,0.4-0.4,0.8,0
				c2,2.3,4.5,3.3,7.6,3.1l4.2-0.7c0-0.6,0.2-0.9,0.6-1.2c2.2-1.7,3.4-4,3.5-6.8C118.9,30.2,118.9,25.9,118.8,21.7"/>
		</g>
	</g>
</g>
</svg>
