<?xml version="1.0" encoding="UTF-8"?>
<svg width="120px" height="103px" viewBox="0 0 120 103" version="1.1" xmlns="http://www.w3.org/2000/svg" xmlns:xlink="http://www.w3.org/1999/xlink">
    <!-- Generator: Sketch 58 (84663) - https://sketch.com -->
    <title>Group 16</title>
    <desc>Created with Sketch.</desc>
    <g id="User-app" stroke="none" stroke-width="1" fill="none" fill-rule="evenodd">
        <g id="Authentication" transform="translate(-121.000000, -160.000000)">
            <g id="Group-16" transform="translate(121.000000, 160.000000)">
                <path d="M56.1979142,80.7480479 C58.1697185,80.7480479 59.6882346,80.3044728 60.7532599,79.416918 C61.8180828,78.5295656 62.3504943,77.3372553 62.3504943,75.8377612 L62.3504943,75.7193801 C62.3504943,74.0632587 61.7976443,72.8310833 60.6939681,72.0220445 C59.5894824,71.2142199 58.0707641,70.8094981 56.1388248,70.8094981 L48.6255701,70.8094981 L48.6255701,80.7480479 L56.1979142,80.7480479 Z M37.1488754,60.8705437 L56.7303256,60.8705437 C59.9249968,60.8705437 62.6261098,61.2655521 64.8352835,62.0539501 C67.0434453,62.8433598 68.8375769,63.9472384 70.2184875,65.3668 C72.663614,67.7332081 73.8864808,70.947913 73.8864808,75.0097005 L73.8864808,75.1280816 C73.8864808,78.3225504 73.1173071,80.9653834 71.579162,83.0551642 C70.041017,85.1461592 67.9706629,86.7433936 65.3674926,87.8470698 L75.2471553,102.281876 L61.9955533,102.281876 L53.6542379,89.7403582 L53.5358568,89.7403582 L48.6255701,89.7403582 L48.6255701,102.281876 L37.1488754,102.281876 L37.1488754,60.8705437 Z" id="Fill-4" fill="#F0F0F0"></path>
                <path d="M96.6791958,92.1065437 C100.122568,92.1065437 102.892686,91.1997646 104.990966,89.3853969 C107.089449,87.5716364 108.138488,84.9880951 108.138488,81.6353801 L108.138488,81.5172013 C108.138488,78.204149 107.089449,75.6309281 104.990966,73.7971339 C102.892686,71.9629349 100.122568,71.0460377 96.6791958,71.0460377 L91.9880659,71.0460377 L91.9880659,92.1065437 L96.6791958,92.1065437 Z M80.5113711,60.8707258 L96.4843222,60.8707258 C100.190966,60.8707258 103.494508,61.3735926 106.393327,62.3793261 C109.292147,63.3848573 111.736869,64.795515 113.729111,66.6090732 C115.72014,68.4236431 117.238859,70.5830361 118.284255,73.0870496 C119.328842,75.5920748 119.851945,78.3427662 119.851945,81.3397308 L119.851945,81.4581119 C119.851945,84.4556836 119.319533,87.226004 118.25471,89.7696802 C117.189685,92.3135588 115.651742,94.5128168 113.640073,96.3660377 C111.628808,98.2202705 109.15353,99.6695791 106.215857,100.714166 C103.277172,101.759562 99.9544066,102.281856 96.24756,102.281856 L80.5113711,102.281856 L80.5113711,60.8707258 Z" id="Fill-6" fill="#F0F0F0"></path>
                <polygon id="Fill-8" fill="#FFA70B" points="119.851884 57.1455251 26.1116477 57.1455251 26.1116477 102.281916 14.2496578 102.281916 14.2496578 57.1455251 1.19584943e-05 57.1455251 1.19584943e-05 48.5188809 119.851884 48.5188809"></polygon>
                <path d="M115.290467,29.2383008 L115.285813,29.2383008 C115.285813,30.836547 115.310501,32.4349956 115.280552,34.0332418 C115.240686,36.3535116 114.175054,38.0464627 112.078798,39.07223 C109.778359,40.1927022 106.661192,39.2666988 105.316909,37.0755352 C104.724194,36.1096668 104.445543,35.0640681 104.440686,33.9435959 C104.435627,30.6275082 104.445543,27.3063615 104.450805,23.9852148 C104.450805,23.4275082 104.515155,23.3627528 105.073064,23.3627528 C108.304565,23.3576937 111.531209,23.3627528 114.757449,23.3429214 C115.190906,23.3429214 115.300383,23.501977 115.295122,23.8955689 C115.285813,25.6779635 115.290467,27.4557039 115.290467,29.2383008 M103.614042,19.3645066 C101.801901,15.3510833 99.9642615,11.3526347 98.1320862,7.34467519 C97.623958,6.23917771 97.1063189,5.13853691 96.588275,4.0332418 C96.4490507,3.73455714 96.5184605,3.58501245 96.8772464,3.59013969 C99.0928956,3.60018952 101.313604,3.60018952 103.529455,3.60018952 C103.93782,3.60018952 104.156774,3.85395006 104.345982,4.1578961 C106.158528,7.12045933 107.975931,10.0832249 109.783216,13.0455858 C111.033402,15.0872047 112.273064,17.1286212 113.517786,19.1750968 C113.607634,19.3246415 113.682305,19.4838995 113.806757,19.707913 C113.567567,19.7378624 113.398393,19.7775251 113.228815,19.7825841 C110.256538,19.7825841 107.283857,19.7825841 104.316235,19.7876431 C103.9876,19.7876431 103.773503,19.7178286 103.614042,19.3645066 M100.845746,34.2770867 C100.825914,36.2938152 99.8794723,37.8226516 98.1466561,38.8283851 C95.527904,40.3618759 92.0371789,39.4259568 90.583216,36.4830226 C90.1999445,35.7112182 90.0554588,34.8898354 90.0605179,34.0332418 C90.0754926,32.4647426 90.0653745,30.8962435 90.0653745,29.3279467 C90.0605179,27.5352317 90.0605179,25.7378624 90.0653745,23.9453497 C90.0653745,23.3825841 90.0953239,23.3528371 90.6530305,23.3528371 C93.8644976,23.3528371 97.0763695,23.3576937 100.288039,23.3479804 C100.681428,23.3429214 100.875493,23.4473396 100.875493,23.8706786 C100.860518,27.3411676 100.875493,30.8068 100.845746,34.2770867 M89.4032497,19.2299366 C88.9453071,17.7063615 85.6808214,6.73233117 85.1876679,5.21341043 C85.146184,5.0873396 85.0943796,4.97158918 85.0344808,4.86474264 C84.9211587,4.48025697 84.8001469,4.08949812 84.6779209,3.6695993 C84.887162,3.63985225 85.0563357,3.60018952 85.2257118,3.60018952 C87.4713104,3.59492814 89.7217658,3.60484382 91.9675668,3.58015579 C92.375931,3.58015579 92.5550204,3.75438851 92.7094217,4.08808159 C94.2530305,7.48389947 95.8067573,10.8748607 97.3602818,14.2605605 C98.1768079,16.0482165 98.993334,17.8407291 99.8497253,19.72309 C99.5907034,19.7479804 99.416673,19.7825841 99.2422379,19.7825841 C96.1950878,19.7775251 93.1426764,19.7676094 90.0953239,19.7775251 C89.6819007,19.7775251 89.512727,19.6034947 89.4032497,19.2299366 M86.4852059,34.0929383 C86.4406865,35.9651811 85.6785954,37.4940175 84.1303324,38.5893969 C81.3318838,40.5759737 77.2688821,39.366058 76.0539074,36.1545909 C75.8098602,35.5072384 75.6605179,34.7803582 75.6506022,34.0929383 C75.6056781,30.7120951 75.6255094,27.3363109 75.6255094,23.9603244 C75.6255094,23.3927022 75.6554588,23.3528371 76.1983931,23.3528371 C79.4298939,23.3528371 82.6563357,23.3576937 85.8829799,23.3627528 C86.4208551,23.3627528 86.4852059,23.4224492 86.4852059,23.9552654 C86.4904673,25.6929383 86.4852059,27.4257544 86.4852059,29.1583683 L86.4904673,29.1583683 C86.4904673,30.8019433 86.520012,32.4499703 86.4852059,34.0929383 M75.3071958,19.2596836 C75.0230811,17.183461 74.6995061,15.1171541 74.3807877,13.0455858 C74.0222042,10.7552654 73.6490507,8.464945 73.2902649,6.16936321 C73.175931,5.45725529 73.0862851,4.7402907 72.9816646,4.02332611 C72.9369428,3.71472578 73.041361,3.58501245 73.3701975,3.58501245 C75.7400457,3.59492814 78.1052396,3.59492814 80.4754926,3.58501245 C80.8338737,3.58501245 80.9633846,3.75944753 81.0580895,4.07816591 C81.4314453,5.33280335 81.8098602,6.58764314 82.2331991,7.82244922 C82.2700288,7.93172409 82.3192025,8.03411869 82.3772801,8.13024011 C83.2585617,11.1941861 84.8246325,16.4741861 84.9217658,16.7951305 C85.1807877,17.6614374 85.4497253,18.5228877 85.7334352,19.3792789 C85.8281401,19.6682502 85.7285786,19.7775251 85.4497253,19.7775251 C85.0114116,19.7825841 84.578157,19.7825841 84.1400457,19.7825841 C81.4067573,19.7825841 78.6777185,19.7775251 75.9442278,19.7927022 C75.5409226,19.7927022 75.3666899,19.6979973 75.3071958,19.2596836 M72.0356275,34.2273059 C71.9660153,36.5678118 70.7959647,38.2208978 68.6796747,39.1519602 C66.3393711,40.1876431 63.411614,39.2116566 62.0622717,37.0358725 C61.4995061,36.1244391 61.2356275,35.1336802 61.2356275,34.0733092 C61.2305685,30.682348 61.2406865,27.2913868 61.2356275,23.8955689 C61.2356275,23.482348 61.3948855,23.3528371 61.8032497,23.3528371 C65.0298939,23.3627528 68.2563357,23.3627528 71.4829799,23.3429214 C71.9210912,23.3429214 72.0603155,23.4872047 72.0556612,23.9154003 C72.0404841,25.7081153 72.0506022,27.5054846 72.0506022,29.2979973 L72.0455432,29.2979973 C72.0455432,30.9411676 72.0854082,32.5843379 72.0356275,34.2273059 M61.2305685,11.6913868 L61.2406865,11.6913868 C61.2406865,9.21671566 61.2406865,6.74690115 61.2455432,4.27222999 C61.2455432,3.60484382 61.2503998,3.60018952 61.9325583,3.60018952 C64.1931317,3.59492814 66.4585617,3.60484382 68.7193374,3.58490508 C69.1774824,3.58015579 69.3468585,3.7394138 69.4114116,4.19249981 C69.6904673,6.14447282 70.0039243,8.09138682 70.2979546,10.0433598 C70.5717489,11.8605605 70.8259142,13.6832249 71.0995061,15.5004256 C71.2887135,16.7504087 71.4878366,18.0001895 71.6970777,19.2499703 C71.7717489,19.707913 71.7417995,19.7775251 71.2541098,19.7775251 C68.087162,19.7825841 64.9202143,19.7775251 61.7482076,19.7877348 C61.3102986,19.7927022 61.2257118,19.5883177 61.2257118,19.2050462 C61.2356275,16.7004256 61.2305685,14.1960074 61.2305685,11.6913868 M57.6457455,33.9435959 C57.6356275,36.2440344 56.6547843,37.9817072 54.5735027,39.0074745 C52.2083088,40.1777275 49.3799108,39.4308135 47.8462177,37.3046077 C47.218899,36.4283851 46.8404841,35.4521963 46.8404841,34.3618759 C46.8303661,32.6741861 46.8356275,30.9860917 46.8356275,29.2931406 L46.8303661,29.2931406 L46.8303661,23.9552654 C46.8303661,23.3678118 46.8503998,23.3528371 47.4481738,23.3528371 L56.9931317,23.3528371 C57.5957624,23.3528371 57.6457455,23.3975588 57.6457455,23.9900715 C57.6506022,27.3063615 57.6556612,30.6275082 57.6457455,33.9435959 M47.21384,19.1801558 C47.4182244,17.930375 47.5924572,16.6755352 47.7865212,15.4259568 C47.9957624,14.0414037 48.2098602,12.6572553 48.4191013,11.2733092 C48.6030474,10.0779635 48.7873981,8.88808159 48.9666899,7.69799728 C49.146184,6.47310689 49.325071,5.25327552 49.4942447,4.02818277 C49.5393711,3.71958244 49.6935701,3.59027384 50.0074319,3.59027384 C52.4074319,3.59492814 54.8023728,3.59492814 57.2021705,3.58501245 C57.6255094,3.58501245 57.6506022,3.83411869 57.6506022,4.14777805 C57.6457455,6.66737333 57.6506022,9.18676625 57.6506022,11.7061592 L57.6506022,19.1702401 C57.6457455,19.7528371 57.6204504,19.7825841 57.0283425,19.7825841 C53.9208889,19.7775251 50.8140423,19.7728708 47.7069934,19.7676094 C47.1243964,19.7676094 47.1193374,19.7279467 47.21384,19.1801558 M45.894447,4.05327552 C45.700383,5.33280335 45.5111755,6.61253353 45.3167067,7.89226372 C45.1175836,9.20174095 44.9085448,10.5112182 44.7094217,11.8208978 C44.500383,13.1750968 44.2913442,14.5294981 44.082103,15.8838995 C43.9028113,17.0341187 43.7089496,18.1744222 43.5592025,19.3246415 C43.5092194,19.7030563 43.3499614,19.7927022 43.006555,19.7876431 C41.4378534,19.7775251 39.8695566,19.7825841 38.3010575,19.7825841 C36.747533,19.7825841 35.1942109,19.7876431 33.6406865,19.7825841 C33.0528281,19.7825841 33.0528281,19.7528371 33.2272632,19.1951305 C33.7400457,17.5120951 34.2329968,15.824203 34.7508383,14.1411676 C35.2636207,12.4631912 35.8012936,10.7852148 36.3144808,9.1021794 C36.8272632,7.41934635 37.33013,5.73610857 37.8279378,4.04841886 C37.9175836,3.74447282 38.0572126,3.59027384 38.3907034,3.59027384 C40.7607539,3.59492814 43.1259479,3.59492814 45.4962008,3.58501245 C45.8499276,3.58501245 45.9442278,3.72464146 45.894447,4.05327552 M43.2503998,34.0233261 C43.2204504,36.1297005 42.3144808,37.7528371 40.4970777,38.8433598 C37.9625077,40.3618759 34.4173475,39.3361086 33.0580895,36.7122974 C32.6197759,35.8607629 32.4056781,34.9594475 32.400619,34.0182671 C32.3858467,30.6673733 32.3907034,27.3211339 32.3858467,23.9752991 C32.3858467,23.3975588 32.4356275,23.3528371 33.0083088,23.3528371 C36.2347506,23.3528371 39.4611924,23.3627528 42.6880389,23.3528371 C43.1259479,23.3528371 43.2605179,23.5120951 43.2554588,23.935434 C43.2404841,25.6979973 43.2503998,27.4656195 43.2503998,29.2281828 L43.2554588,29.2281828 C43.2554588,30.8268337 43.2754926,32.4250799 43.2503998,34.0233261 M30.7724234,14.912972 C30.3393711,16.3420445 29.9008551,17.760999 29.4928956,19.1951305 C29.3783593,19.6083514 29.2041266,19.7927022 28.751243,19.7927022 C25.7184605,19.7775251 22.6862851,19.7825841 19.653705,19.7775251 C19.4695566,19.7775251 19.2852059,19.7378624 19.036302,19.707913 C19.4942447,18.7072384 19.9129293,17.7810327 20.3358636,16.854827 C21.3268248,14.6938152 22.3175836,12.5380647 23.3036882,10.3768506 C24.2794723,8.24578817 25.2404841,6.10946439 26.236302,3.98346102 C26.3160322,3.8092283 26.5799108,3.6101052 26.7642615,3.6101052 C29.1193374,3.58501245 31.4695566,3.59027384 33.8248349,3.59492814 C33.9294555,3.59492814 34.0288147,3.62507991 34.2131654,3.65482696 C33.9442278,4.5561423 33.6951216,5.40261785 33.436302,6.2490934 C32.988275,7.718031 32.540248,9.18190959 32.0869597,10.6457882 C31.6488484,12.0695993 31.2054757,13.4889585 30.7724234,14.912972 M28.8155937,33.963832 C28.8107371,36.3336802 27.7303324,38.0367494 25.6089833,39.082348 C23.1343121,40.3021794 19.7186629,39.0673733 18.5583256,36.5528371 C18.1900288,35.7510833 18.0203452,34.9297005 18.0203452,34.0581322 C18.0257118,30.677289 18.0257118,27.2962435 18.0203452,23.9204593 C18.0157961,23.4922637 18.1649361,23.3429214 18.6030474,23.3478566 C21.8001469,23.3627528 24.9966393,23.3528371 28.1981907,23.3528371 C28.7858467,23.3528371 28.8155937,23.3777275 28.8155937,23.9603244 C28.8204504,25.7378624 28.8155937,27.5204593 28.8155937,29.2979973 C28.8155937,30.8563784 28.8204504,32.4101052 28.8155937,33.963832 M15.2173475,19.4788404 C15.0676005,19.8024155 14.8041266,19.7825841 14.535189,19.7825841 L8.24621769,19.7825841 C7.38517216,19.7825841 6.52837621,19.7825841 5.66692596,19.7728708 C5.49775226,19.7728708 5.32857857,19.7279467 5.06955665,19.6929383 C5.49775226,18.9810327 5.88122612,18.3387393 6.26935429,17.7013025 C8.61977587,13.8374239 10.9797084,9.97354534 13.3353914,6.10946439 C13.7334352,5.45725529 14.1369428,4.80524854 14.53013,4.14777805 C14.7594049,3.76936321 15.0629462,3.58015579 15.5308045,3.58492129 C17.6570103,3.60018952 19.783216,3.59027384 21.9094217,3.59492814 C22.4025752,3.59492814 22.4470946,3.67486068 22.2481738,4.10791296 C21.0032497,6.82663134 19.7684437,9.55040874 18.5237219,12.2691271 C17.4232835,14.6737814 16.312727,17.0739838 15.2173475,19.4788404 M14.4356275,33.9435959 C14.4105347,36.2391777 13.4246325,38.0068 11.3085448,39.0226516 C9.06800521,40.1028539 6.38915192,39.4805942 4.81559375,37.553714 C4.01889897,36.5779298 3.59556002,35.4572553 3.59090572,34.1876431 C3.5858467,32.5294981 3.59090572,30.8715555 3.59090572,29.2134104 C3.59090572,27.4457882 3.60061904,25.6832249 3.58078768,23.9204593 C3.57572865,23.501977 3.69046727,23.3378624 4.14335091,23.3428082 C7.35502039,23.3627528 10.5664875,23.3528371 13.778157,23.3528371 C14.3757287,23.3528371 14.4404841,23.4125335 14.4404841,23.9900715 C14.4453408,27.3063615 14.4653745,30.6226516 14.4356275,33.9435959 M118.845543,21.7096668 C118.840484,21.3112182 118.711176,20.8631912 118.512052,20.5195824 C117.416673,18.6673733 116.281226,16.8349956 115.161159,15.0026178 C112.671513,10.9147258 110.142204,6.85152173 107.706993,2.73347788 C106.606757,0.881268777 105.132963,-0.0149875466 102.951513,-2.84217094e-14 C95.1642615,0.0499702949 87.3818669,0.0200208851 79.5942109,0.0200208851 C58.2578872,0.0200208851 36.9169091,0.0248775461 15.5807877,0.0149618632 C13.7583256,0.0149618632 12.4041266,0.766934882 11.4578872,2.31540031 C7.90281128,8.14622662 4.35259206,13.9817072 0.772423426,19.7975588 C0.24952292,20.6490934 -0.0145580246,21.500628 2.20268248e-13,22.5114205 C0.0453407949,26.3752991 0.00567806305,30.2391777 0.0253070681,34.1028539 C0.0404841339,37.100628 1.28540825,39.5105437 3.65525648,41.3330057 C3.97417722,41.5819096 7.67373877,43.0557039 8.45545884,43.0905099 C11.3783593,43.2349956 13.8230811,42.224203 15.7699951,40.0281828 C16.193334,39.5504087 16.2281401,39.5504087 16.6514791,40.0334442 C18.0257118,41.6167157 19.7484099,42.6523986 21.8001469,42.9810327 C25.1160322,43.5089922 27.9642615,42.5328033 30.2250373,39.9933767 C30.6131654,39.5603244 30.6530305,39.5552654 31.0411587,40.0032924 C32.4107371,41.5918253 34.1235195,42.6376263 36.1801131,42.971117 C39.4959985,43.5039332 42.3492868,42.5576937 44.6098602,40.0134104 C45.0182244,39.5552654 45.0380558,39.5504087 45.4213273,39.9984357 C46.8008214,41.6068 48.5435533,42.6376263 50.6098602,42.971117 C53.9059142,43.5039332 56.7492868,42.5576937 59.0001469,40.0281828 C59.4329968,39.5504087 59.4682076,39.5453497 59.8862851,40.0383008 C61.011614,41.3578961 62.4107371,42.3087899 64.0686797,42.7471035 C67.7433509,43.718031 70.9153577,42.8068 73.4796747,39.9535116 C73.8182244,39.5752991 73.8827776,39.5653834 74.2067573,39.9435959 C75.3466561,41.2929383 76.7558973,42.2838995 78.4488484,42.7321288 C82.0986292,43.6979973 85.2704335,42.8466651 87.8398096,40.0085538 C88.2380558,39.5702401 88.2730642,39.5653834 88.6563357,40.0085538 C90.0406865,41.6068 91.7783593,42.6422806 93.8444639,42.971117 C97.1807877,43.5039332 100.039135,42.5279467 102.299708,39.958773 C102.638258,39.5702401 102.702811,39.5702401 103.056336,39.9684863 C105.067803,42.2442367 107.577482,43.3048101 110.610063,43.0856533 L114.76271,42.4332418 C114.76271,41.8706786 114.951715,41.5369855 115.38497,41.1984357 C117.590906,39.4704762 118.795762,37.1801558 118.840484,34.3867662 C118.910501,30.1643042 118.870434,25.9371878 118.845543,21.7096668" id="Fill-10" fill="#F0F0F0"></path>
            </g>
        </g>
    </g>
</svg>